<svg width="80" height="80" viewBox="0 0 80 80" fill="none" xmlns="http://www.w3.org/2000/svg">
<path d="M6.6665 23.3332V6.6665H23.3332V13.3332H13.3332V23.3332H6.6665ZM6.6665 73.3332V56.6665H13.3332V66.6665H23.3332V73.3332H6.6665ZM56.6665 73.3332V66.6665H66.6665V56.6665H73.3332V73.3332H56.6665ZM66.6665 23.3332V13.3332H56.6665V6.6665H73.3332V23.3332H66.6665ZM58.3332 58.3332H63.3332V63.3332H58.3332V58.3332ZM58.3332 48.3332H63.3332V53.3332H58.3332V48.3332ZM53.3332 53.3332H58.3332V58.3332H53.3332V53.3332ZM48.3332 58.3332H53.3332V63.3332H48.3332V58.3332ZM43.3332 53.3332H48.3332V58.3332H43.3332V53.3332ZM53.3332 43.3332H58.3332V48.3332H53.3332V43.3332ZM48.3332 48.3332H53.3332V53.3332H48.3332V48.3332ZM43.3332 43.3332H48.3332V48.3332H43.3332V43.3332ZM63.3332 16.6665V36.6665H43.3332V16.6665H63.3332ZM36.6665 43.3332V63.3332H16.6665V43.3332H36.6665ZM36.6665 16.6665V36.6665H16.6665V16.6665H36.6665ZM31.6665 58.3332V48.3332H21.6665V58.3332H31.6665ZM31.6665 31.6665V21.6665H21.6665V31.6665H31.6665ZM58.3332 31.6665V21.6665H48.3332V31.6665H58.3332Z" fill="white"/>
</svg>
